<?xml version="1.0" encoding="UTF-8"?>
<svg id="Layer_1" xmlns="http://www.w3.org/2000/svg" version="1.1" viewBox="0 0 2144.71 359">
  <!-- Generator: Adobe Illustrator 29.5.1, SVG Export Plug-In . SVG Version: 2.1.0 Build 141)  -->
  <g>
    <path d="M1897.32,315.73c-3.13,0-6.35-.16-9.58-.48-13.9-1.37-26.07-4.15-36.17-8.26-10.98-4.47-19.95-10.8-26.65-18.8-6.7-7.98-11.34-17.74-13.8-28.99-2.29-10.44-2.77-22.6-1.44-36.13l4.44-45.1h0c-14.31-2.41-21.08-9.66-24.25-15.32-3.91-6.97-5.2-16.53-3.96-29.22,1.21-12.28,4.83-21.36,11.06-27.75,5.95-6.1,14.01-9.33,23.31-9.33.61,0,1.24.01,1.87.04l2.32-23.61c.62-6.28,1.69-11.7,3.27-16.56,2.38-7.34,7.58-13.29,15.02-17.19,5.09-2.67,11.35-3.97,19.15-3.97,2.6,0,5.42.15,8.4.44,11.89,1.17,20.58,4.18,26.54,9.2,6.46,5.46,10.3,12.58,11.11,20.59.53,5.34.52,10.87-.03,16.45l-2.13,21.63,10.55.73c.13,0,.27.02.4.03,5.61.55,10.99,1.62,16.01,3.17,7.57,2.36,13.71,7.49,17.78,14.85,3.78,6.85,5.03,16.08,3.83,28.22-1.11,11.3-3.98,19.67-8.76,25.6-5.12,6.35-11.91,10.38-19.61,11.63-3.27.53-6.71.8-10.2.8-2.37,0-4.83-.12-7.3-.37-.11-.01-.21-.02-.32-.04l-10.58-1.29-4.17,42.34c-.21,2.19-.25,3.79-.23,4.92.76.13,1.7.27,2.87.38,6.47.64,12.34,1.84,17.47,3.59,7.42,2.54,13.28,7.45,16.96,14.2,3.46,6.38,4.55,14.59,3.45,25.85-1.17,11.91-4.18,20.59-9.21,26.55-5.55,6.58-12.8,10.36-20.97,10.95-2.12.15-4.29.23-6.45.23Z" fill="#cdd6f4"/>
    <path d="M1823.21,110.5l40.82,4.02,51.35,3.55c4.7.46,9.11,1.33,13.23,2.61,4.12,1.28,7.34,4.04,9.68,8.26,2.33,4.23,3.05,10.92,2.15,20.07-.83,8.41-2.74,14.47-5.72,18.17-2.99,3.7-6.64,5.9-10.95,6.6-4.32.7-8.95.81-13.89.32l-48.5-5.9-44.94-4.05c-7.13-1.2-11.91-3.98-14.35-8.34-2.45-4.36-3.19-11.37-2.24-21.01.88-8.91,3.26-15.35,7.15-19.34,3.89-3.98,9.29-5.64,16.22-4.96ZM1889.11,301.32c-12.62-1.24-23.37-3.68-32.25-7.3-8.89-3.62-15.96-8.56-21.21-14.83-5.26-6.26-8.87-13.92-10.85-22.99-1.98-9.06-2.37-19.65-1.18-31.77l14.79-150.28c.51-5.2,1.39-9.73,2.65-13.6,1.25-3.87,3.99-6.91,8.2-9.12,4.21-2.21,10.77-2.87,19.68-2s15.2,2.87,18.89,5.98c3.69,3.11,5.75,6.88,6.2,11.29.44,4.42.43,8.98-.03,13.67l-14.5,147.31c-.39,3.96-.41,7.27-.04,9.92.36,2.66,1.1,4.67,2.22,6.03,1.11,1.36,2.76,2.4,4.94,3.11,2.18.72,4.87,1.23,8.09,1.55,5.44.54,10.21,1.51,14.32,2.91,4.11,1.4,7.16,3.95,9.18,7.65,2.01,3.7,2.61,9.62,1.81,17.79-.88,8.91-2.87,15.21-5.98,18.89-3.12,3.69-6.87,5.69-11.27,6.01-4.4.32-8.96.24-13.65-.22Z" fill="#cba6f7"/>
  </g>
  <g>
    <path d="M1700.53,311.97c-2.94,0-5.92-.12-8.86-.36-13.75-1.11-26.71-4.55-38.51-10.21-12.08-5.8-23.08-14.02-32.68-24.44-9.51-10.32-17.11-22.23-22.57-35.41-5.55-13.37-8.33-27.7-8.26-42.59.08-15.09,3.72-30.25,10.84-45.08,6.63-13.82,15.59-25.61,26.62-35.05,10.86-9.3,23.23-16.43,36.76-21.19,12.33-4.33,25.17-6.53,38.15-6.53,1.26,0,2.52.02,3.79.06,14.53.47,28.78,4.02,42.36,10.53,18.35,8.81,33.11,21.42,43.87,37.48,10.68,15.93,16.96,33.79,18.66,53.08,1.71,19.46-1.89,38.62-10.69,56.97-7.44,15.5-17.16,28.17-28.88,37.66-11.54,9.35-24.37,16.17-38.14,20.26-10.73,3.19-21.66,4.81-32.46,4.81ZM1700.4,174.86c-.65,0-1.32.03-1.97.09-4.45.4-8.53,1.88-12.46,4.51-3.8,2.54-6.74,6.05-8.99,10.74-2.66,5.55-3.64,10.43-2.98,14.91.69,4.73,2.34,8.61,5.06,11.88,3.05,3.68,6.38,6.4,9.9,8.09,3.5,1.68,7.54,2.49,12.35,2.49,4.51,0,8.81-1.17,13.13-3.57,3.77-2.1,7.05-5.99,9.73-11.58,2.37-4.94,3.35-9.49,3-13.9-.35-4.35-1.77-8.22-4.33-11.81-2.67-3.74-6.42-6.74-11.47-9.16-3.77-1.81-7.36-2.69-10.96-2.69Z" fill="#cdd6f4"/>
    <path d="M1659.21,288.78c-10.54-5.06-20.01-12.16-28.44-21.3-8.43-9.14-15.08-19.57-19.93-31.28-4.86-11.7-7.26-24.09-7.19-37.16.07-13.06,3.22-26.09,9.46-39.09,5.81-12.1,13.51-22.26,23.1-30.48,9.59-8.22,20.36-14.42,32.3-18.62,11.94-4.2,24.22-6.09,36.85-5.68,12.62.41,24.87,3.46,36.75,9.16,16.14,7.74,28.9,18.63,38.3,32.65,9.4,14.02,14.84,29.53,16.35,46.52,1.49,16.99-1.63,33.55-9.37,49.68-6.56,13.67-14.92,24.62-25.07,32.84-10.15,8.23-21.26,14.13-33.32,17.72-12.06,3.59-24.13,4.9-36.21,3.92-12.08-.98-23.28-3.93-33.58-8.88ZM1682.9,237.7c5.38,2.58,11.51,3.87,18.41,3.87,6.89,0,13.53-1.78,19.93-5.33,6.39-3.55,11.58-9.47,15.56-17.76,3.44-7.17,4.88-14.2,4.33-21.08-.56-6.89-2.86-13.16-6.89-18.82-4.04-5.66-9.65-10.21-16.81-13.65-6.72-3.23-13.48-4.54-20.24-3.93-6.78.61-13.11,2.88-18.99,6.81-5.89,3.93-10.49,9.37-13.83,16.32-3.87,8.07-5.28,15.74-4.21,23,1.06,7.27,3.77,13.53,8.14,18.8,4.36,5.27,9.24,9.19,14.62,11.77Z" fill="#b4befe"/>
    <path d="M1803.73,202.95c51.8-52.24,42.39-110.66,42.39-110.66,0,0-39.96-12.33-88.99,10.42,0,0,62.19,33.27,46.6,100.23" fill="#cba6f7" stroke="#cdd6f4" stroke-miterlimit="10" stroke-width="14"/>
    <path d="M1619.57,133.27c1.57-73.55,50.1-107.39,50.1-107.39,0,0,36.63,20.16,54.35,71.23,0,0-67.14-21.59-104.46,36.16" fill="#cba6f7" stroke="#cdd6f4" stroke-miterlimit="10" stroke-width="14"/>
    <path d="M1619.16,131.62" display="none" fill="#cba6f7" stroke="#cdd6f4" stroke-miterlimit="10" stroke-width="14"/>
  </g>
  <g>
    <path d="M1510.37,319.07c-3.58,0-7.25-.17-10.91-.52-13.97-1.31-27.58-5.09-40.46-11.23-13.07-6.22-24.72-15.02-34.62-26.15-10.03-11.27-17.46-24.98-22.09-40.76-4.31-14.71-5.54-29.47-3.65-43.87,1.85-14.18,6.28-27.75,13.17-40.34,6.88-12.58,15.91-23.63,26.86-32.85,11.12-9.37,24.09-16.26,38.54-20.5,10.66-3.12,21.37-4.71,31.84-4.71,8.67,0,17.37,1.09,25.85,3.23,18.59,4.7,35.2,13.78,49.37,26.98,14.28,13.32,24.42,29.98,30.15,49.51,4.83,16.49,6.08,32.41,3.71,47.31-2.33,14.67-7.31,28.32-14.81,40.57-7.44,12.16-16.78,22.58-27.75,30.94-10.97,8.37-22.9,14.48-35.46,18.16-9.52,2.79-19.52,4.2-29.73,4.2ZM1509.84,182.42c-2.91,0-6.03.48-9.29,1.44-4.73,1.39-8.45,3.58-11.35,6.71-3.04,3.27-5.08,7.1-6.25,11.69-1.13,4.43-.96,9,.5,13.99,1.73,5.91,4.27,10.19,7.75,13.08,3.67,3.05,7.5,4.83,11.71,5.45,1.85.27,3.63.41,5.31.41,2.65,0,5.16-.34,7.46-1.01,3.72-1.09,7.27-3.19,10.85-6.41,3.35-3.02,5.77-6.76,7.38-11.43,1.4-4.08,1.23-9.17-.51-15.12-1.54-5.26-3.85-9.29-7.07-12.34-3.17-3-6.81-4.92-11.12-5.88-1.72-.38-3.53-.58-5.37-.58Z" fill="#cdd6f4"/>
    <path d="M1536.17,301.43c-11.22,3.29-23.01,4.34-35.4,3.18-12.38-1.16-24.3-4.47-35.74-9.93-11.44-5.45-21.5-13.06-30.19-22.82-8.68-9.75-15.06-21.55-19.11-35.39-3.77-12.88-4.84-25.58-3.2-38.11,1.64-12.52,5.5-24.34,11.57-35.44,6.07-11.1,13.94-20.72,23.6-28.87,9.66-8.14,20.81-14.06,33.45-17.77,17.18-5.03,33.95-5.48,50.31-1.34,16.37,4.14,30.78,12.03,43.26,23.65,12.47,11.63,21.22,26.03,26.26,43.21,4.26,14.55,5.37,28.28,3.32,41.18-2.05,12.91-6.35,24.72-12.92,35.45-6.57,10.73-14.67,19.78-24.3,27.13-9.64,7.35-19.94,12.64-30.91,15.85ZM1519.62,247.61c5.73-1.68,11.15-4.82,16.28-9.43,5.12-4.61,8.87-10.37,11.25-17.28,2.38-6.91,2.27-14.78-.31-23.61-2.24-7.63-5.86-13.82-10.88-18.57-5.02-4.75-10.92-7.87-17.71-9.38-6.79-1.51-14-1.14-21.63,1.09-7.16,2.1-13.05,5.64-17.68,10.62-4.63,4.99-7.82,10.91-9.56,17.76-1.75,6.86-1.53,13.99.63,21.38,2.52,8.59,6.6,15.23,12.25,19.92,5.65,4.7,11.85,7.54,18.62,8.53,6.77,1,13.01.66,18.74-1.02Z" fill="#b4befe"/>
    <path d="M1598.75,158.4c15.46-71.93-23.95-116.05-23.95-116.05,0,0-40.3,11.16-69.33,56.76,0,0,70.31-5.51,93.29,59.3" fill="#cba6f7" stroke="#cdd6f4" stroke-miterlimit="10" stroke-width="14"/>
    <path d="M1405.62,194.39c-38.21-62.86-15.47-117.48-15.47-117.48,0,0,41.73-2.69,84.12,30.85,0,0-68.22,17.88-68.65,86.63" fill="#cba6f7" stroke="#cdd6f4" stroke-miterlimit="10" stroke-width="14"/>
  </g>
  <g>
    <path d="M1319.97,325.27c-7.66,0-13.79-1.28-18.74-3.92-7.36-3.92-12.54-10.17-14.96-18.06-1.59-5.17-2.7-10.62-3.29-16.21l-13.76-129.4c-.62-5.88-.68-11.5-.17-16.7.78-7.99,4.65-15.06,11.21-20.43,5.96-4.89,14.42-7.78,26.63-9.07,3.26-.35,6.32-.52,9.11-.52,7.04,0,12.76,1.09,17.47,3.33,1.76.84,3.38,1.76,4.88,2.76,3.77-3.07,8.13-5.85,13.02-8.29,6.59-3.28,14.26-5.4,22.81-6.31,3.05-.32,6.45-.49,10.1-.49h.58c4.25.02,8.71.49,13.26,1.39,4.87.96,9.48,2.49,13.71,4.55,4.9,2.38,9.1,5.62,12.5,9.61,4,4.71,6.38,10.53,7.1,17.31,1.37,12.87-.59,24.48-5.82,34.48-7.77,14.85-19.3,19.01-27.6,19.9-2.66.28-4.93.42-6.96.42-2.61,0-4.84-.23-6.83-.72-3.21-.77-6.12-1.95-8.6-3.5,0,0,0,0,0,0,0,0-.04-.02-.11-.05h-.04c-.58,0-1.63.04-3.35.22-2.34.25-4.54.79-6.53,1.62-1.72.72-3.25,1.7-4.68,3.01-1.05.96-1.77,2.01-2.27,3.28-.45,1.16-.58,2.54-.4,4.24l8.63,81.2c.59,5.59.65,11.11.16,16.43-.77,8.29-4.73,15.44-11.46,20.71-5.95,4.65-14.34,7.41-26.41,8.7-3.29.35-6.39.53-9.21.53Z" fill="#cdd6f4"/>
    <path d="M1327.7,310.82c-9.15.97-15.77.36-19.88-1.82-4.11-2.19-6.83-5.46-8.17-9.82-1.34-4.36-2.26-8.88-2.76-13.58l-13.76-129.4c-.53-4.94-.58-9.56-.16-13.86.42-4.29,2.47-7.95,6.15-10.96,3.67-3.02,10.09-5.01,19.24-5.98,8.65-.92,15.01-.41,19.1,1.53,4.08,1.94,6.78,4.41,8.1,7.39,1.31,2.99,2.09,5.59,2.33,7.81l-4.21,2.7c.39-1.04,1.49-2.97,3.32-5.79,1.82-2.82,4.44-5.84,7.85-9.08,3.41-3.23,7.66-6.12,12.77-8.67,5.1-2.54,11.11-4.18,18.04-4.92,2.72-.29,5.77-.43,9.14-.41s6.91.39,10.62,1.12c3.7.73,7.13,1.87,10.3,3.4,3.16,1.54,5.82,3.57,7.96,6.09,2.14,2.53,3.43,5.76,3.85,9.72,1.08,10.14-.36,18.97-4.3,26.52-3.95,7.54-9.51,11.7-16.67,12.46-4.21.45-7.2.46-9,.02-1.8-.43-3.3-1.02-4.5-1.77-1.2-.74-2.58-1.35-4.13-1.81-1.55-.46-4.3-.48-8.25-.06-3.71.39-7.18,1.27-10.41,2.61-3.23,1.35-6.16,3.22-8.78,5.62-2.62,2.41-4.57,5.24-5.85,8.5-1.28,3.26-1.71,6.87-1.29,10.82l8.63,81.2c.5,4.7.55,9.26.14,13.67-.41,4.42-2.46,8.08-6.15,10.96-3.69,2.89-10.11,4.83-19.26,5.8Z" fill="#cba6f7"/>
  </g>
  <g>
    <path d="M1254.28,306.61c-12.88,0-22.46-2.97-29.29-9.09-7.66-6.87-11.79-17.46-12.6-32.38-.54-9.77.41-17.67,2.88-24.16,2.95-7.77,8.44-13.88,15.85-17.68,6.2-3.17,13.82-4.96,23.33-5.48,1.72-.09,3.4-.14,5-.14,12.94,0,22.51,3.02,29.26,9.23,7.45,6.87,11.47,17.66,12.31,33,.51,9.4-.33,17.07-2.59,23.46-2.84,8.04-8.41,14.25-16.09,17.95-6.11,2.95-13.64,4.63-23.04,5.14-1.72.09-3.41.14-5.02.14Z" fill="#cdd6f4"/>
    <path d="M1258.53,292.49c-11.42.63-19.48-1.17-24.19-5.4-4.71-4.22-7.37-11.79-7.97-22.72-.42-7.69.23-13.83,1.98-18.41,1.74-4.58,4.79-7.98,9.15-10.21,4.36-2.23,10.26-3.55,17.71-3.96,11.41-.63,19.42,1.18,24.01,5.41,4.58,4.23,7.19,12.06,7.82,23.47.41,7.45-.2,13.45-1.81,18.02-1.62,4.57-4.61,7.91-8.97,10.01-4.37,2.11-10.27,3.36-17.72,3.77Z" fill="#b4befe"/>
  </g>
  <g>
    <path d="M1060.43,333.11c-6.06,0-11.09-.96-15.38-2.95-7.55-3.48-13.06-9.33-15.92-16.93-1.87-4.96-3.31-10.43-4.27-16.25l-34.86-211.92c-.98-5.96-1.29-11.71-.92-17.09.52-7.8,3.93-14.9,9.85-20.51,5.57-5.28,13.85-8.68,26.03-10.69,4.53-.74,8.7-1.12,12.39-1.12,6.31,0,11.54,1.05,15.99,3.22,7.42,3.63,12.81,9.41,15.62,16.72,1.88,4.92,3.32,10.34,4.27,16.15l7.88,47.89c7.6-5.45,16.7-9.06,27.12-10.78,5.35-.88,10.7-1.33,15.89-1.33,12.06,0,23.77,2.39,34.81,7.11,15.58,6.65,29,17.21,39.9,31.38,10.84,14.11,17.97,31.21,21.2,50.83l10.96,66.59c.97,5.93,1.28,11.67.92,17.07-.53,7.75-3.82,14.79-9.51,20.34-5.48,5.36-13.86,8.81-26.37,10.87-4.52.74-8.7,1.12-12.41,1.12-5.98,0-10.99-.94-15.32-2.86-7.77-3.45-13.4-9.32-16.29-16.98-1.87-4.96-3.31-10.43-4.27-16.24l-10.95-66.59c-.82-4.96-2.26-8.92-4.29-11.79-1.75-2.46-3.88-4.15-6.7-5.3-1.78-.73-3.77-1.08-6.1-1.08-1.4,0-2.93.13-4.53.4-5.92.97-10.42,3.4-14.13,7.62-3.26,3.7-4.8,7.35-4.82,11.42l11.88,72.23c.98,5.93,1.29,11.67.92,17.07-.53,7.83-3.94,14.92-9.85,20.52-5.6,5.3-13.87,8.69-26.04,10.7-4.73.78-8.89,1.16-12.71,1.16Z" fill="#cdd6f4"/>
    <path d="M1070.87,318.14c-9.08,1.49-15.73,1.26-19.95-.69-4.23-1.95-7.12-5-8.68-9.15-1.57-4.15-2.75-8.68-3.56-13.59l-34.86-211.92c-.81-4.9-1.07-9.52-.77-13.85.29-4.33,2.13-8.1,5.51-11.3,3.38-3.2,9.6-5.55,18.68-7.04,9.07-1.49,15.73-1.2,19.98.87,4.24,2.08,7.14,5.13,8.69,9.15,1.54,4.03,2.72,8.5,3.53,13.4l12.35,75.05c3.65-5.38,8.63-10.74,14.93-16.06,6.3-5.32,14.24-8.77,23.8-10.34,15.21-2.5,29.52-.89,42.93,4.84,13.41,5.73,24.85,14.75,34.3,27.04,9.45,12.3,15.62,27.16,18.48,44.57l10.95,66.59c.81,4.91,1.06,9.53.77,13.85-.3,4.34-2.07,8.09-5.33,11.27-3.26,3.18-9.54,5.54-18.86,7.07-8.83,1.45-15.42,1.21-19.77-.72-4.35-1.93-7.31-4.97-8.87-9.12-1.57-4.15-2.75-8.68-3.56-13.59l-10.95-66.59c-1.17-7.11-3.4-12.98-6.67-17.61-3.28-4.62-7.55-8.02-12.82-10.17-5.27-2.16-11.34-2.67-18.2-1.54-9.08,1.49-16.53,5.55-22.37,12.18-5.84,6.63-8.6,13.95-8.29,21.96l12.04,73.21c.81,4.91,1.06,9.53.77,13.85-.3,4.34-2.13,8.1-5.51,11.3-3.38,3.2-9.61,5.55-18.68,7.04Z" fill="#b4befe"/>
  </g>
  <g>
    <path d="M949.35,326.31c-4.98,0-10.12-.33-15.29-.99-13.5-1.71-26.67-5.8-39.14-12.17-12.84-6.54-24.13-15.91-33.55-27.84-9.47-11.98-16.22-26.69-20.06-43.72-3.85-17.06-4.03-33.16-.54-47.85,3.44-14.5,9.56-27.61,18.17-38.96,8.43-11.11,18.52-20.47,29.99-27.82,11.45-7.34,23.33-12.43,35.3-15.13,8.32-1.88,16.32-2.83,23.79-2.83,1.68,0,3.36.05,4.99.14,8.76.52,16.6,1.86,23.29,3.99,6.32,2.01,11.19,4.04,14.82,6.19,5.07,2.37,9.75,4.9,13.91,7.52,7.22,4.57,11.88,11.75,13.47,20.79.04.2.07.4.09.6.6,4.54.25,9.31-1.04,14.18-1.01,3.82-2.45,7.81-4.26,11.86-7.42,16.85-17.62,25.94-30.32,27.02-.28.02-.56.04-.84.05-.44.01-.88.02-1.31.02-4.79,0-9.45-.66-13.85-1.97-3.5-1.03-7-2.14-10.37-3.28-2.5-.84-5.18-1.52-7.95-2.02-.54-.1-1.16-.15-1.82-.15-1.19,0-2.52.16-3.96.49-4.6,1.04-8.3,2.92-11.32,5.74-3.13,2.93-5.29,6.28-6.6,10.26-1.24,3.78-1.32,7.94-.24,12.74,1.04,4.6,2.92,8.3,5.74,11.31,2.93,3.13,6.29,5.29,10.26,6.6,2.14.7,4.27,1.05,6.53,1.05,1.75,0,3.6-.22,5.48-.64,2.5-.56,4.63-1.35,6.34-2.32,2.38-1.36,3.72-2.47,4.43-3.16l.08-.08c1.74-1.69,3.13-3.03,4.16-4.02,2.55-2.66,5.06-5.17,7.47-7.44,4.16-3.92,8.87-6.49,14-7.64,2.16-.49,4.39-.74,6.63-.74,4.47,0,9.02.98,13.55,2.92,5.34,2.29,11.17,6.04,17.83,11.47,7.32,5.8,12.1,11.87,14.62,18.56,2.79,7.42,2.69,15.43-.28,23.19-2.4,6.25-6.58,12.36-12.43,18.18-2.24,2.82-5.53,6.09-10.22,10.16-5.03,4.36-11.35,8.73-18.79,12.97-7.83,4.46-17.01,7.9-27.3,10.23-7.53,1.7-15.43,2.56-23.46,2.56Z" fill="#cdd6f4"/>
    <path d="M969.72,310.09c-10.67,2.41-21.97,2.86-33.91,1.34-11.94-1.51-23.45-5.09-34.53-10.75-11.09-5.65-20.73-13.67-28.93-24.05-8.21-10.38-14-23.08-17.39-38.12-3.39-15.03-3.59-28.87-.58-41.53,3-12.65,8.24-23.9,15.7-33.74,7.46-9.84,16.26-18,26.39-24.49,10.13-6.49,20.41-10.91,30.83-13.27,8.97-2.02,17.26-2.81,24.88-2.37,7.61.45,14.24,1.56,19.87,3.35,5.62,1.79,9.78,3.53,12.45,5.22,4.83,2.22,9.18,4.56,13.05,6.99,3.86,2.44,6.25,6.24,7.15,11.38.36,2.73.13,5.64-.7,8.76-.83,3.12-2,6.38-3.53,9.78-5.22,11.88-11.46,18.13-18.7,18.75-3.8.09-7.41-.36-10.82-1.38-3.42-1.01-6.71-2.05-9.88-3.12-3.17-1.06-6.49-1.91-9.94-2.54-3.46-.62-7.24-.47-11.36.46-7.04,1.59-12.97,4.65-17.81,9.18-4.84,4.53-8.28,9.89-10.32,16.09-2.04,6.19-2.24,12.93-.6,20.2,1.59,7.04,4.65,12.97,9.18,17.8,4.53,4.84,9.89,8.28,16.09,10.32,6.19,2.04,12.68,2.3,19.47.77,3.88-.87,7.28-2.15,10.22-3.84,2.93-1.68,5.34-3.43,7.22-5.26,1.88-1.82,3.34-3.24,4.39-4.24,2.47-2.59,4.86-4.98,7.18-7.16,2.31-2.18,4.8-3.57,7.47-4.17,3.64-.82,7.5-.35,11.59,1.4,4.08,1.75,8.95,4.93,14.57,9.52,5.27,4.16,8.7,8.36,10.29,12.58,1.59,4.23,1.5,8.64-.26,13.25-1.77,4.6-5.06,9.23-9.86,13.88-1.56,2.14-4.53,5.1-8.89,8.89-4.37,3.79-9.89,7.58-16.55,11.38-6.66,3.8-14.48,6.71-23.45,8.73Z" fill="#cba6f7"/>
  </g>
  <g>
    <path d="M782.37,327.03c-5.61,0-10.33-.87-14.42-2.67-7.64-3.35-13.28-9.19-16.29-16.88-1.97-5.02-3.49-10.38-4.51-15.91l-23.51-127.99c-1.07-5.82-1.55-11.42-1.44-16.65.17-8.02,3.5-15.36,9.63-21.21,5.57-5.33,13.8-8.85,25.87-11.06,5.08-.93,9.52-1.39,13.57-1.39,5.05,0,9.35.71,13.15,2.18,1.82.7,3.51,1.5,5.07,2.39,3.52-3.35,7.66-6.45,12.35-9.25,6.32-3.77,13.81-6.47,22.26-8.02,3.18-.58,6.75-1.02,10.62-1.29,1.49-.11,3.03-.16,4.57-.16,2.82,0,5.77.18,8.76.54,4.93.59,9.65,1.77,14.02,3.5,5.06,2,9.5,4.91,13.19,8.64,4.34,4.39,7.16,10.02,8.39,16.72,2.34,12.73,1.26,24.45-3.19,34.82-6.63,15.39-17.81,20.42-26.02,21.93-3.87.71-7.04,1.06-9.69,1.06-1.47,0-2.8-.1-4.08-.31-3.25-.52-6.24-1.48-8.83-2.83,0,0-.04-.02-.11-.04-.55.04-1.61.15-3.37.48-2.32.43-4.47,1.13-6.39,2.11-1.66.84-3.11,1.94-4.43,3.35-.97,1.04-1.62,2.14-2.02,3.45-.36,1.18-.39,2.57-.08,4.25l14.75,80.31c1.01,5.52,1.49,11.03,1.4,16.37-.14,8.32-3.55,15.76-9.86,21.52-5.58,5.09-13.73,8.47-25.67,10.67-5.14.94-9.62,1.4-13.71,1.4Z" fill="#cdd6f4"/>
    <path d="M793.54,311.86c-9.05,1.66-15.7,1.56-19.96-.32-4.26-1.87-7.23-4.93-8.89-9.17-1.67-4.24-2.92-8.69-3.78-13.33l-23.51-127.99c-.9-4.89-1.3-9.49-1.21-13.8.09-4.31,1.86-8.11,5.3-11.4,3.44-3.29,9.68-5.76,18.73-7.42,8.55-1.57,14.94-1.54,19.16.08,4.21,1.63,7.09,3.88,8.63,6.75,1.54,2.88,2.51,5.41,2.92,7.61l-4,3.01c.31-1.06,1.27-3.08,2.87-6.03,1.6-2.95,3.99-6.16,7.14-9.65,3.15-3.48,7.17-6.68,12.07-9.61,4.9-2.92,10.77-5.01,17.61-6.27,2.69-.49,5.72-.86,9.09-1.1,3.37-.24,6.92-.13,10.67.31,3.74.45,7.26,1.32,10.53,2.62,3.27,1.29,6.07,3.12,8.4,5.47,2.33,2.36,3.85,5.49,4.57,9.4,1.84,10.03,1.07,18.95-2.29,26.77-3.37,7.82-8.6,12.38-15.68,13.68-4.16.76-7.15,1-8.97.7-1.83-.29-3.36-.77-4.62-1.43-1.26-.65-2.67-1.15-4.25-1.49-1.58-.34-4.33-.15-8.24.56-3.67.67-7.06,1.81-10.18,3.39-3.12,1.59-5.9,3.68-8.33,6.27-2.43,2.6-4.16,5.57-5.19,8.91-1.03,3.35-1.18,6.98-.46,10.89l14.75,80.31c.85,4.65,1.24,9.19,1.17,13.62-.07,4.44-1.84,8.24-5.3,11.4-3.46,3.16-9.72,5.58-18.76,7.24Z" fill="#b4befe"/>
  </g>
  <g>
    <path d="M622.01,319.51c-13.19-1.01-25.73-4.85-37.26-11.42-11.49-6.54-21.59-15.3-30.02-26.05-8.26-10.52-14.7-22.42-19.14-35.34-4.54-13.2-6.35-27.1-5.37-41.33.96-13.99,4.64-27.35,10.95-39.7,6.19-12.13,14.31-22.89,24.13-31.98,9.84-9.11,20.93-16.21,32.97-21.09,12.45-5.05,25.6-7.14,39.1-6.22l.89.06c10.55.81,19.78,3.11,27.43,6.82,4.07,1.98,7.82,4.13,11.21,6.44,1.37-1.25,2.87-2.39,4.5-3.39,7.16-4.41,16.74-6.14,29.26-5.28l.81.06c11.58.89,20.08,3.66,25.97,8.47,6.43,5.27,10.36,12.31,11.36,20.38.67,5.41.81,11.1.41,16.92l-8.8,128.33c-.38,5.57-1.29,11.06-2.68,16.32-2.14,7.99-7.07,14.42-14.28,18.62-6.66,3.87-15.49,5.28-27.8,4.43l-.74-.05c-11.92-.92-20.88-3.99-27.38-9.39-1.25-1.04-2.4-2.14-3.44-3.29-3.33,1.63-6.96,3.11-10.86,4.43-8.76,2.97-19.02,4.08-30.49,3.29l-.75-.05ZM638.76,189.85c-4.41-.3-8.27.43-11.81,2.24-3.72,1.9-6.71,4.55-9.13,8.09-2.33,3.41-3.62,7.36-3.94,12.06-.29,4.16.45,7.89,2.26,11.43,1.88,3.68,4.55,6.65,8.16,9.07,3.5,2.34,7.34,3.65,11.75,3.98l.24.02c4,.28,7.43-.41,10.49-2.1,3.45-1.9,6.27-4.56,8.64-8.15,2.28-3.47,3.55-7.36,3.86-11.89.32-4.74-.37-8.78-2.13-12.38-1.78-3.62-4.22-6.48-7.47-8.71-3.1-2.13-6.61-3.32-10.69-3.64l-.22-.02Z" fill="#cdd6f4"/>
    <path d="M696.63,310.59c-9.18-.63-15.88-2.71-20.13-6.24s-6.08-7.64-5.51-12.34l4.15-6.07c-1.66,2.38-4.72,5.22-9.18,8.53-4.47,3.31-10.2,6.16-17.22,8.54-7.02,2.38-15.36,3.24-25.03,2.58-11.41-.78-22.09-4.01-32.04-9.67-9.95-5.66-18.6-13.17-25.93-22.52-7.34-9.34-12.97-19.76-16.92-31.25-3.95-11.48-5.5-23.42-4.64-35.82.83-12.15,3.98-23.58,9.45-34.3,5.46-10.71,12.52-20.07,21.17-28.07,8.64-8,18.22-14.13,28.73-18.4,10.51-4.26,21.46-6,32.87-5.22,9.17.63,16.89,2.47,23.17,5.51,6.27,3.05,11.45,6.46,15.56,10.22,4.1,3.77,7.16,7.35,9.17,10.72l-2.99-5.44c.41-5.95,2.89-10.32,7.44-13.13,4.55-2.8,11.54-3.88,20.96-3.23,8.93.61,15.22,2.42,18.88,5.41,3.65,3,5.76,6.75,6.33,11.27.56,4.52.67,9.27.33,14.22l-8.8,128.33c-.32,4.71-1.07,9.27-2.25,13.67-1.18,4.4-3.77,7.78-7.79,10.12-4.03,2.34-10.63,3.2-19.8,2.57ZM635.33,250.7c6.7.46,12.76-.81,18.2-3.8,5.44-2.99,9.96-7.22,13.58-12.71,3.61-5.48,5.66-11.69,6.14-18.64.49-7.19-.69-13.69-3.52-19.49-2.84-5.8-6.88-10.5-12.11-14.1-5.24-3.59-11.2-5.63-17.9-6.09s-13.32.77-19.13,3.73c-5.81,2.97-10.58,7.19-14.32,12.66-3.74,5.48-5.85,11.81-6.35,19-.46,6.7.79,12.95,3.76,18.76,2.96,5.81,7.25,10.59,12.85,14.34,5.59,3.75,11.87,5.86,18.81,6.34Z" fill="#cba6f7"/>
  </g>
  <g>
    <path d="M458.3,321.48c-8.74,0-17.11-.96-24.89-2.86-15.34-3.74-28.76-10.17-39.88-19.1-10.88-8.73-19.88-19.22-26.76-31.18-6.79-11.79-11.47-24.22-13.89-36.96-3.94-20.71-2.67-40.36,3.76-58.4,6.44-18.06,17.36-33.59,32.48-46.16,15.01-12.47,33.42-20.85,54.74-24.9,8.1-1.54,15.94-2.32,23.29-2.32s14.06.74,20.52,2.2c13.07,2.96,24.56,8.03,34.17,15.07,9.47,6.94,17.2,15.08,22.98,24.19,5.81,9.15,9.64,18.49,11.41,27.76,3.25,17.09,1.2,31.31-6.1,42.26-3.51,5.26-7.79,9.59-12.8,12.96.42.18.84.37,1.26.57,5.42,2.58,10.46,6.72,15.02,12.33,3.05,3.33,5.42,6.79,7.04,10.3,1.56,3.4,2.69,6.89,3.36,10.42,1.39,7.3.9,18.37-9.33,29.65-6.47,7.14-15.55,13.33-27.76,18.93-11.35,5.2-25.42,9.42-41.84,12.54-9.33,1.77-18.35,2.67-26.78,2.67ZM459.51,242.82c1.9.29,3.82.44,5.73.44,2.48,0,5.05-.25,7.62-.74,4.98-.95,9.42-2.07,13.21-3.33,2.64-.88,4.92-1.79,6.8-2.71l-33.36,6.34ZM464.48,177.95c-2.07,0-4.35.24-6.8.7-5.21.99-9.49,2.8-13.07,5.53-.81.61-1.55,1.25-2.24,1.89l31.15-5.92c-1.29-.84-2.86-1.44-4.75-1.81-1.3-.26-2.75-.39-4.3-.39Z" fill="#cdd6f4"/>
    <path d="M482.47,305.05c-17.1,3.25-32.35,3.24-45.74-.04-13.4-3.27-24.88-8.75-34.43-16.42-9.56-7.67-17.36-16.75-23.4-27.24-6.04-10.49-10.13-21.35-12.27-32.59-3.48-18.32-2.42-35.34,3.19-51.09,5.61-15.74,15.02-29.1,28.25-40.1,13.22-10.99,29.35-18.29,48.4-21.91,14.16-2.69,26.86-2.76,38.1-.22,11.24,2.55,20.9,6.79,28.98,12.71,8.08,5.93,14.57,12.73,19.44,20.41,4.87,7.68,8.03,15.3,9.47,22.87,2.55,13.43,1.22,24.06-4,31.88-5.22,7.82-12.84,12.69-22.85,14.59l-87.18,16.57c1.65,6.01,4.91,10.83,9.77,14.46,4.86,3.63,10.58,6.09,17.15,7.37,6.57,1.28,13.27,1.27,20.11-.03,5.61-1.07,10.62-2.33,15.03-3.81,4.4-1.47,8.08-3.05,11.05-4.76,2.96-1.7,5.63-3.35,7.98-4.93,2.36-1.59,4.56-2.95,6.62-4.1s4.04-2.03,5.95-2.65c3.37-.89,6.86-.48,10.48,1.23,3.61,1.72,7.08,4.67,10.41,8.84,2.22,2.37,3.87,4.71,4.94,7.03,1.07,2.33,1.84,4.71,2.31,7.15,1.16,6.11-.82,11.99-5.95,17.64-5.13,5.66-12.87,10.86-23.22,15.61-10.36,4.75-23.23,8.59-38.61,11.51ZM422.66,204.08l57.88-11c3.66-.7,6.34-1.9,8.04-3.62,1.7-1.71,2.18-4.52,1.43-8.43-.79-4.15-2.85-7.68-6.19-10.59-3.34-2.91-7.44-4.85-12.3-5.82-4.87-.97-10.35-.88-16.46.28-7.33,1.39-13.64,4.11-18.94,8.15-5.3,4.04-9.14,8.82-11.51,14.33-2.37,5.51-3.02,11.08-1.95,16.69Z" fill="#b4befe"/>
  </g>
  <g>
    <path d="M298.13,310.59c-10.79,0-22.71-1.61-35.43-4.79-7.31-1.83-15.13-4.64-23.24-8.36-8.1-3.72-15.81-8.15-22.92-13.19-7.45-5.28-13.66-10.98-18.46-16.94-7.84-9.71-8.72-18.83-7.97-24.99.29-4.23,6.47-8.47,8.52-12.61,1.83-3.71,4.35-7.4,7.5-10.94,2.84-3.21,6.35-6.45,10.44-9.63,4.87-4.01,10.09-6.21,15.52-6.54.46-.03.94-.04,1.42-.04,2.3,0,4.65.34,7.03,1.02-2.93-3.17-5.56-6.58-7.88-10.22-4.41-6.9-7.38-14.81-8.8-23.49-1.42-8.65-.78-18.5,1.91-29.26,3.64-14.54,10.31-26.21,19.83-34.69,9.5-8.46,21.64-13.73,36.07-15.67,3.97-.53,8.16-.8,12.45-.8,10.18,0,16.43,1.52,28.46,4.53,4.8,1.2,9.62,2.69,14.32,4.44,4.95,1.84,9.77,4.11,14.33,6.74,4.36,2.52,8.63,5.31,12.7,8.32,4.03,2.98,8,6.36,11.82,10.07,13.55,11.31,13.43,23.5,12.13,29.8-1.84,8.89-6.93,17.04-15.15,24.25-5.09,4.49-10.13,7.52-15.36,9.21-2.46.8-4.95,1.27-7.42,1.4,3.37,2.75,6.49,5.73,9.34,8.93,6.2,6.96,10.56,15.33,12.98,24.88,2.43,9.63,2.04,21.01-1.17,33.83-5.85,23.42-18.93,39.65-38.87,48.25-10.03,4.32-21.5,6.52-34.1,6.52ZM305.18,163.25c.63.34,1.29.69,1.96,1.04,1.09.56,2.2,1.13,3.34,1.7-1.76-1.15-3.52-2.05-5.3-2.73Z" fill="#cdd6f4"/>
    <path d="M266.1,292.22c-6.51-1.63-13.45-4.13-20.8-7.51-7.36-3.38-14.25-7.34-20.66-11.89-6.42-4.55-11.64-9.31-15.64-14.29-4.01-4.97-5.65-9.93-4.93-14.88.12-2.53.83-5.11,2.12-7.73,1.29-2.62,8.1-5.24,10.43-7.87,2.32-2.62,5.22-5.29,8.73-8,2.59-2.17,5.12-3.33,7.6-3.48,2.47-.15,5.27.68,8.41,2.49,3.67,1.69,7.22,3.92,10.63,6.69,3.4,2.77,1.9,5.7,5.49,8.77,3.58,3.08,7.35,5.94,11.3,8.59,3.95,2.66,8.21,4.55,12.8,5.7,6.75,1.69,12.25,1.98,16.5.86,4.25-1.11,6.83-3.48,7.73-7.1.66-2.65.42-5.02-.72-7.1-1.15-2.08,2.04-4.07-.43-5.97-2.47-1.9-5.44-3.86-8.91-5.88-3.47-2.02-7.13-4.02-10.99-6.01-3.86-1.99-7.9-4.28-12.12-6.87-5.37-3.13-10.56-6.73-15.55-10.81-5.01-4.07-9.21-8.77-12.61-14.11-3.41-5.33-5.67-11.41-6.78-18.22-1.12-6.81-.56-14.68,1.67-23.6,2.95-11.81,8.14-21.03,15.55-27.63s16.95-10.69,28.62-12.25c11.66-1.56,20.21-.42,35.65,3.44,4.34,1.09,8.62,2.41,12.84,3.98,4.22,1.57,8.29,3.48,12.21,5.74,3.91,2.26,7.71,4.75,11.39,7.46,3.68,2.71,7.26,5.79,10.76,9.22,6.39,5.19,8.98,10.7,7.78,16.55-1.21,5.85-4.76,11.37-10.67,16.55-3.62,3.2-7.1,5.34-10.44,6.42-3.35,1.08-6.53,1-9.54-.27-3.62-1.93-7.37-4.59-11.26-8-3.89-3.41-8.07-6.69-12.52-9.86-4.46-3.16-9.11-5.35-13.93-6.56-4.1-1.03-2.73-1.36-5.9-1-3.16.36-5.7,1.27-7.6,2.71-1.9,1.45-3.15,3.38-3.75,5.79-.78,3.14-.5,5.83.86,8.09s3.45,4.39,6.29,6.38c2.83,1.99,6.17,3.98,10.04,5.97,3.86,1.99,3.07,4.07,7.66,6.24,6.21,2.84,12.49,6.14,18.86,9.9,6.36,3.77,11.89,8.29,16.59,13.56,4.7,5.28,7.99,11.61,9.86,18.99,1.87,7.38,1.48,16.38-1.18,26.99-4.76,19.05-15.05,31.98-30.84,38.8-15.8,6.81-35.99,7.14-60.59.99Z" fill="#cba6f7"/>
  </g>
</svg>